<?xml version="1.0" encoding="utf-8"?>
<!-- Generator: Adobe Illustrator 23.0.4, SVG Export Plug-In . SVG Version: 6.00 Build 0)  -->
<svg version="1.1" id="Layer_1" xmlns="http://www.w3.org/2000/svg" xmlns:xlink="http://www.w3.org/1999/xlink" x="0px" y="0px"
	 viewBox="0 0 100 27" style="enable-background:new 0 0 100 27;" xml:space="preserve">
<style type="text/css">
	.st0{fill:#FFFFFF;}
	.st1{font-family:'MyriadPro-Regular';}
	.st2{font-size:4.0438px;}
	.st3{font-size:7.7988px;}
</style>
<g>
	<path class="st0" d="M1.2,6.2c-0.3,0.7-1,3.4-0.4,6.5H7V6.2H1.2z M6.1,10.8c-0.3,0.1-0.4,0.1-0.6,0c-0.1,0.1-0.2,0.2-0.3,0.3
		c0.2,0.1,0.3,0.1,0.4,0.2c-0.3,0.1-0.5,0.1-0.6-0.1c-0.1,0.1-0.2,0.2-0.3,0.2c0.2,0.1,0.3,0.2,0.4,0.3c-0.3,0.1-0.5,0-0.6-0.2
		c-0.1,0-0.2,0.1-0.3,0.1c0.1,0.1,0.2,0.1,0.2,0.2C4.2,12,4,12,4,11.8c0,0-0.1,0-0.1,0v0.4l-0.3-0.1v-0.3c0,0-0.1,0-0.1,0
		C3.4,12,3.3,12,3.1,12c0-0.1,0.1-0.2,0.2-0.2c-0.1,0-0.2-0.1-0.3-0.1c-0.1,0.2-0.3,0.3-0.6,0.2c0.1-0.1,0.2-0.3,0.4-0.3
		c-0.1-0.1-0.2-0.1-0.3-0.2c-0.1,0.1-0.3,0.2-0.6,0.1c0.1-0.1,0.2-0.2,0.4-0.3C2.2,11.1,2.1,11,2,10.9c-0.1,0.1-0.3,0.2-0.6,0
		c0.1-0.1,0.3-0.3,0.4-0.3c-0.1-0.1-0.1-0.2-0.2-0.3c-0.1,0-0.1,0-0.2-0.1c-0.1-0.1-0.1-0.3,0-0.3c0.1-0.1,0.2,0,0.3,0.1
		c0,0.1,0,0.1,0,0.2c0.1,0.1,0.1,0.2,0.2,0.2c0-0.2,0-0.4,0.1-0.6c0.2,0.3,0.2,0.6,0.1,0.8c0.1,0.1,0.2,0.2,0.3,0.3
		c0-0.2,0-0.4,0.1-0.6c0.2,0.3,0.2,0.6,0.1,0.8c0.1,0.1,0.2,0.1,0.2,0.2c0-0.2-0.1-0.4,0-0.6C3,11,3.1,11.3,3.1,11.5
		c0.1,0,0.2,0.1,0.3,0.1c0-0.1-0.1-0.3-0.1-0.4c0.2,0.1,0.2,0.2,0.2,0.4c0,0,0.1,0,0.1,0l0-0.4c-0.2,0-0.4-0.1-0.5-0.5
		c0.2,0,0.4,0.1,0.5,0.2v-0.2c-0.3,0-0.7-0.3-0.9-0.8c0.3,0.1,0.6,0.2,0.9,0.4v-0.2c-0.3,0-0.6-0.3-0.7-0.7c0.2,0,0.5,0.2,0.7,0.3
		V9.6C3.3,9.6,3,9.4,2.9,8.9c0.2,0,0.5,0.2,0.7,0.3V9C3.3,9,3,8.8,2.9,8.4c0.2,0,0.5,0.2,0.7,0.3V8.4C3.4,8.4,3.2,8.3,3,7.8
		c0.2,0,0.4,0.1,0.6,0.3V7.8c-0.2,0-0.3-0.1-0.4-0.4c0.1,0,0.3,0,0.4,0.2l0-0.2C3.5,7.2,3.5,7.1,3.5,6.9c0-0.1,0.1-0.2,0.2-0.3
		c0.2,0,0.2,0.1,0.2,0.3c0,0.2,0,0.2-0.1,0.4l0,0.2C4,7.5,4.2,7.4,4.3,7.3C4.2,7.7,4.1,7.8,3.9,7.8l0,0.3C4,8,4.2,7.8,4.4,7.8
		C4.3,8.2,4.1,8.4,3.9,8.4v0.3c0.2-0.1,0.5-0.3,0.7-0.4C4.4,8.8,4.2,9,3.9,9l0,0.3c0.2-0.1,0.5-0.3,0.7-0.3C4.4,9.3,4.2,9.6,3.9,9.6
		v0.2c0.2-0.1,0.5-0.3,0.7-0.3c-0.1,0.5-0.4,0.7-0.7,0.7v0.2c0.2-0.1,0.6-0.4,0.9-0.4c-0.1,0.5-0.5,0.7-0.9,0.8V11
		c0.1-0.1,0.4-0.2,0.5-0.2c-0.1,0.3-0.3,0.4-0.5,0.5l0,0.4c0,0,0.1,0,0.1,0c0-0.1,0.1-0.3,0.2-0.4c0,0.1-0.1,0.3-0.1,0.4
		c0.1,0,0.2,0,0.3-0.1c-0.1-0.2,0-0.5,0.2-0.7c0,0.2,0,0.4,0,0.6c0.1-0.1,0.2-0.1,0.3-0.2c-0.1-0.2-0.1-0.5,0.1-0.8
		c0.1,0.1,0.1,0.4,0.1,0.6c0.1-0.1,0.2-0.2,0.3-0.3c-0.2-0.2-0.2-0.4,0-0.7c0.1,0.1,0.1,0.4,0.1,0.5c0.1-0.1,0.1-0.2,0.2-0.3
		c0-0.1,0-0.2,0-0.2C5.8,9.9,5.9,9.8,6,9.9c0.1,0.1,0.1,0.2,0,0.3c0,0.1-0.1,0.1-0.2,0.1c-0.1,0.1-0.2,0.2-0.2,0.3
		C5.8,10.7,5.9,10.7,6.1,10.8z"/>
	<path class="st0" d="M9.1,8.5C9.1,8.5,9.2,8.5,9.1,8.5C9.2,8.5,9.2,8.5,9.1,8.5C9.1,8.4,9.1,8.4,9.1,8.5C9.1,8.5,9.1,8.5,9.1,8.5"
		/>
	<path class="st0" d="M9.2,8.2C9.3,8.2,9.3,8.2,9.2,8.2C9.3,8.2,9.3,8.2,9.2,8.2C9.3,8.1,9.2,8.1,9.2,8.2C9.2,8.2,9.2,8.2,9.2,8.2"
		/>
	<g>
		<path class="st0" d="M9.9,8.7L10,8.7l0.3,0.1V8.3L9.7,8l0,0.3C9.8,8.5,9.9,8.6,9.9,8.7z"/>
		<path class="st0" d="M9.3,14.6c0,0.1,0.2,0.3,0.5,0.4c0-0.4,0-0.7,0-1C9.4,14.2,9.3,14.4,9.3,14.6z"/>
		<path class="st0" d="M10.6,16c0-0.1-0.1-0.2-0.4-0.3c0,0.2,0,0.3,0,0.5C10.6,16.1,10.6,16,10.6,16z"/>
		<path class="st0" d="M9.1,8.7C8.9,8.6,8.9,8.5,8.8,8.4c0,0,0,0,0-0.1c0,0,0,0-0.1,0c-0.1,0-0.3,0-0.3,0.2c-0.1,0.2,0,0.6,1,1.5
			c0.1,0.1,0.1,0.1,0.2,0.2l0-1.5C9.5,8.8,9.3,8.7,9.1,8.7z"/>
		<path class="st0" d="M9.1,8.5C9.2,8.5,9.2,8.5,9.1,8.5c0.1-0.1,0.1-0.1,0-0.1c0,0-0.1,0-0.1,0C9,8.4,9,8.5,9.1,8.5
			C9,8.5,9.1,8.5,9.1,8.5C9.1,8.5,9.1,8.5,9.1,8.5z"/>
		<path class="st0" d="M9.3,8.2C9.3,8.2,9.3,8.2,9.3,8.2C9.3,8.2,9.3,8.2,9.3,8.2c0.1-0.1,0-0.1,0-0.1c0,0-0.1,0-0.1,0
			C9.2,8.1,9.2,8.1,9.3,8.2C9.2,8.2,9.2,8.2,9.3,8.2C9.2,8.2,9.3,8.2,9.3,8.2z"/>
		<path class="st0" d="M10.1,17.5v-0.2c0-0.1-0.1-0.2-0.2-0.2c0,0.1,0,0.3,0,0.4l0,0c0,0,0.1,0.1,0.1,0.1
			C10.1,17.6,10.1,17.6,10.1,17.5C10.2,17.6,10.2,17.5,10.1,17.5L10.1,17.5z"/>
		<path class="st0" d="M12.9,6.2H7.1v14.4v0.7C7.6,21,8,20.8,8.3,20.5C15.3,15.7,13.5,7.5,12.9,6.2z M11.4,12.7
			c-0.1,0.4-0.5,0.7-1.2,1.1c0,0.4,0,0.9,0,1.4c0,0,0.1,0,0.1,0c0.6,0.3,0.7,0.5,0.7,0.7c0,0.3-0.4,0.6-0.8,0.6c0,0.1,0,0.2,0,0.3
			c0.1,0.1,0.2,0.2,0.2,0.3c0,0.1-0.1,0.2-0.2,0.3c0,0,0,0.1,0,0.1c0,0.1-0.1,0.2-0.2,0.2c-0.1,0-0.2-0.1-0.2-0.1c0,0,0,0-0.1,0
			c-0.1,0-0.1,0-0.2,0c0,0-0.1,0-0.1,0c0,0,0-0.1,0.1-0.1c0.1-0.1,0.1-0.1,0.2-0.2c0-0.1,0-0.2,0-0.2c0,0-0.1,0-0.1-0.1
			c-0.2-0.1-0.3-0.3-0.3-0.4c0-0.2,0.3-0.3,0.4-0.4c0-0.3,0-0.6,0-0.8c-0.1-0.1-0.3-0.1-0.4-0.2c-0.6-0.2-0.7-0.5-0.7-0.8
			c0-0.5,0.6-1,1-1.1c-0.1-1.4-0.3-1.7-0.4-1.8l0,0l0.2-0.4l0.2,0.1V11c-0.1-0.1-0.2-0.2-0.3-0.3c-0.2-0.2-0.8-0.8-0.9-0.9
			C8.3,9.6,8.1,9.3,8,9.1C7.9,8.8,7.9,8.4,8.1,8.2C8.2,8,8.5,7.9,8.9,8C9,8,9,8,9.1,8c0,0,0.1,0,0.1,0c0.1,0,0.1,0,0.2,0.1
			c0,0,0.1,0.1,0.2,0.2l0-0.4l0.7,0.4l0,0.6c0.1-0.1,0.2-0.3,0.4-0.3l0.1,0l0.1,0.7l0,0c-0.3,0.2-0.4,0.5-0.5,1.6
			C11.1,11.7,11.5,12.2,11.4,12.7z"/>
		<path class="st0" d="M10.1,16.8c0-0.1,0-0.2,0-0.2l0,0v-0.4l0,0c0-0.2,0-0.4,0-0.6c-0.1,0-0.1-0.1-0.2-0.1c0,0.4,0,0.7,0,1.2
			C10,16.8,10.1,16.8,10.1,16.8z"/>
		<path class="st0" d="M10.3,13.2c0.4-0.2,0.6-0.4,0.6-0.6c0-0.3-0.2-0.6-0.6-1C10.3,12.1,10.3,12.6,10.3,13.2z"/>
		<path class="st0" d="M10.8,9.3l-0.1-0.5c-0.1,0.1-0.3,0.3-0.3,0.4l-0.1,0l0-0.3l-0.1,0l0,0.2l0,0L9.9,8.8L9.8,8.7c0,0,0,0-0.1,0
			l0,1.6c0.2,0.2,0.4,0.3,0.5,0.5C10.3,9.8,10.5,9.5,10.8,9.3z"/>
		<path class="st0" d="M9.7,11.1v0.4l-0.2-0.2l-0.1,0.2C9.6,11.7,9.8,12,9.9,15c0.1,0,0.1,0.1,0.2,0.1c0-1.6,0-2.7,0.1-3.6
			c-0.1-0.1-0.2-0.2-0.3-0.3C9.8,11.2,9.8,11.2,9.7,11.1z"/>
	</g>
	<g>
		<rect x="3.4" y="15" class="st0" width="0.4" height="1"/>
		<path class="st0" d="M0.8,12.8c0.5,2.6,1.8,5.5,5,7.7C6.2,20.8,6.6,21,7,21.3v-0.7v-7.7H0.8z M6.2,17.8H3.8v-1.4H3v-2.4h2.4l0,1.4
			h0.8V17.8z"/>
		<rect x="4.1" y="15.7" class="st0" width="1" height="0.4"/>
		<rect x="3.4" y="14.2" class="st0" width="1" height="0.4"/>
		<rect x="4.8" y="16.4" class="st0" width="0.3" height="0.3"/>
		<rect x="4.1" y="15" class="st0" width="0.3" height="0.3"/>
		<rect x="4.7" y="14.2" class="st0" width="0.4" height="1"/>
		<rect x="5.4" y="15.7" class="st0" width="0.4" height="1"/>
		<rect x="4.1" y="16.4" class="st0" width="0.4" height="1"/>
		<rect x="4.8" y="17" class="st0" width="1" height="0.4"/>
	</g>
	<g>
		<g>
			<path class="st0" d="M28,14.3c-1.5,0-1.6-1.1-1.6-1.5c0-0.4,0.1-1.1,1-1.5c1-0.4,1.2-0.4,1.8-0.6v-0.2c0-0.3,0-0.4-0.1-0.6
				c-0.1-0.4-0.5-0.6-1-0.6c-0.7,0-1,0.6-1,0.6L27.2,10l-0.3-0.2l0-0.1c0.1-0.4,0.7-1.1,1.8-1.1c0.8,0,1.2,0.2,1.6,0.7
				c0.2,0.4,0.2,0.9,0.2,1.4c0,0.5,0,1,0,1.4c0,0.3,0,0.5,0,0.7c0,0.4,0.1,0.7,0.4,0.7c0.1,0,0.1,0,0.2-0.1l0.1-0.1l0.2,0.2
				l-0.1,0.1c-0.3,0.4-0.6,0.6-1.1,0.6c-0.4,0-0.7-0.2-0.8-0.5C29.1,14,28.7,14.3,28,14.3z M29.3,11.4c-0.7,0.2-1,0.3-1.2,0.5
				c-0.3,0.2-0.5,0.5-0.5,0.9c0,0.3,0.1,0.8,0.8,0.8c0.2,0,0.6,0,0.9-0.3L29.3,11.4L29.3,11.4z"/>
		</g>
		<g>
			<g>
				<path class="st0" d="M19,14.3c-0.7,0-1.2-0.1-1.8-0.3l-0.1,0v-0.4c0-0.5,0-0.7,0-0.9l0-0.3l0.3,0l0,0.1c0,0.2,0.1,0.5,0.2,0.7
					c0.2,0.3,0.8,0.4,1.3,0.4c1,0,1.5-0.4,1.5-1.2c0-0.7-0.4-1-1.1-1.4l-0.1-0.1l-0.6-0.4c-0.9-0.6-1.4-1.1-1.4-2c0-0.5,0.2-2,2.4-2
					c0.9,0,1.7,0.1,1.7,0.1l0.1,0l0,0.1c0,0,0,0.3,0,0.6c0,0.3,0,0.5,0,0.7l0,0.2h-0.3l0-0.1c0-0.3-0.1-0.5-0.3-0.7
					c-0.2-0.2-0.7-0.3-1.2-0.3c-1.2,0-1.3,0.6-1.3,1.1c0,0.6,0.3,0.9,1,1.3l0.8,0.5c0.7,0.5,1.4,0.9,1.4,2.1
					C21.6,14.1,19.8,14.3,19,14.3z"/>
			</g>
			<g>
				<path class="st0" d="M24.4,14.3c-0.8,0-1.3-0.3-1.5-1c-0.1-0.3-0.1-0.8-0.1-1.1c0-0.9,0-1.6,0-2.4l0-0.4h-0.7V9.3l0.1,0
					c0.3-0.1,0.5-0.2,0.6-0.3c0.5-0.4,0.9-1.1,0.9-1.1l0.1-0.2H24v1.2h1.8v0.7H24v2.8c0,0.9,0.2,1.3,1,1.3c0.4,0,0.7-0.1,0.7-0.1
					l0.1-0.1l0.1,0.2l0,0.1C25.8,13.8,25.4,14.3,24.4,14.3z"/>
			</g>
			<g>
				<path class="st0" d="M31.8,14.2V14l0.1,0c0.1,0,0.3,0,0.5-0.2c0.2-0.2,0.2-0.6,0.2-1.6v-1.5c0-0.7,0-1-0.1-1.1
					c-0.1-0.2-0.4-0.2-0.5-0.2c0,0,0,0,0,0l-0.1,0V9l0.1,0c0,0,0,0,0.1,0c0.2,0,0.6,0,1-0.1c0.3-0.1,0.5-0.2,0.6-0.2l0.1,0l0.1,0.1
					v0.4C34,9,34.6,8.7,35.3,8.7c1,0,1.6,0.5,1.8,1.3c0.1,0.2,0.1,0.7,0.1,1v1.6c0,0.9,0,1.1,0.2,1.3c0.1,0.1,0.3,0.1,0.4,0.2l0.1,0
					v0.3l-0.3,0c-0.4,0-0.7,0-1.1,0c-0.4,0-0.7,0-1.2,0l-0.1,0V14l0.1,0c0.2,0,0.4-0.1,0.4-0.2c0.2-0.2,0.2-0.6,0.2-1
					c0-0.1,0-0.1,0-0.2c0-0.2,0-0.6,0-0.9c0-0.4,0-0.8,0-1.2c-0.1-0.7-0.4-1-1.2-1c-0.5,0-0.8,0.1-1,0.2v2.8c0,0.9,0,1.1,0.2,1.3
					c0.1,0.1,0.3,0.1,0.4,0.2l0.1,0v0.3l-0.3,0c-0.4,0-0.7,0-1,0c-0.4,0-0.8,0-1.2,0L31.8,14.2z"/>
			</g>
			<g>
				<path class="st0" d="M38.5,14.2V14l0.1,0c0.1,0,0.3,0,0.5-0.2c0.2-0.2,0.2-0.6,0.2-1.6V9.5h-0.7V9.2l0.1,0
					C39,9,39.2,8.9,39.3,8.8c0-0.5,0-1.1,0.1-1.4c0.2-1.1,0.9-1.7,2.2-1.7c0.5,0,1,0.2,1.3,0.4l0,0l0,0.1L42.4,7l-0.1,0l0-0.1
					c-0.2-0.5-0.5-0.6-0.9-0.6c-0.2,0-0.4,0.1-0.5,0.2c-0.2,0.2-0.3,0.6-0.3,1.3v1h1.2v0.7h-1.2v3c0,0.7,0,1.1,0.1,1.2
					c0.2,0.2,0.6,0.2,0.7,0.2h0.1v0.3l-0.1,0c-0.6,0-1,0-1.4,0c-0.4,0-0.9,0-1.3,0L38.5,14.2z"/>
			</g>
			<g>
				<path class="st0" d="M44.8,14.3c-1.7,0-2.6-1-2.6-2.8c0-1.3,0.7-2.9,2.8-2.9c1.7,0,2.6,1,2.6,2.8C47.5,12.8,46.8,14.3,44.8,14.3
					z M44.8,9.3c-0.3,0-0.6,0.1-0.8,0.2c-0.4,0.4-0.7,1-0.7,2c0,0.4,0.1,2.2,1.4,2.2c0.3,0,0.6-0.1,0.8-0.2c0.4-0.4,0.7-1,0.7-2
					C46.2,11.1,46.2,9.3,44.8,9.3z"/>
			</g>
			<g>
				<path class="st0" d="M48.1,14.2V14l0.1,0c0.1,0,0.3,0,0.5-0.2c0.2-0.2,0.2-0.6,0.2-1.6v-1.5c0-0.7,0-1-0.1-1.1
					c-0.1-0.2-0.4-0.2-0.5-0.2c0,0,0,0,0,0l-0.1,0V9l0.1,0c0,0,0.1,0,0.1,0c0.2,0,0.6,0,1-0.1c0.3,0,0.5-0.1,0.6-0.2l0.1,0L50,8.8
					v0.5c0.3-0.2,0.7-0.5,1.3-0.5c0.4,0,0.7,0.1,0.9,0.3l0,0v0.2l-0.5,0.8h-0.2l0-0.1c-0.1-0.2-0.4-0.4-0.9-0.4
					c-0.2,0-0.4,0.1-0.6,0.2v2.7c0,0.7,0,1.1,0.1,1.2c0.2,0.2,0.6,0.2,0.7,0.2H51v0.3l-0.1,0c-0.6,0-1,0-1.4,0c-0.4,0-0.9,0-1.3,0
					L48.1,14.2z"/>
			</g>
			<g>
				<path class="st0" d="M56.6,14.3l-0.1,0v-0.5c-0.3,0.2-0.8,0.5-1.5,0.5c-1.5,0-2.5-1-2.5-2.6c0-0.5,0.1-1,0.3-1.5
					c0.5-1,1.4-1.5,2.6-1.5c0.4,0,0.8,0.1,1.1,0.1V7.6c0-0.7,0-1-0.1-1.2c-0.1-0.2-0.3-0.2-0.5-0.2c0,0,0,0,0,0l-0.1,0l0-0.2h0.1
					c0,0,0.7-0.1,1.2-0.2c0.2,0,0.4-0.1,0.5-0.1l0.1,0l0.1,0.1l0,0.1c0,0.4,0,1.4,0,2.1v4.4c0,0.7,0,1.1,0.1,1.2
					c0.1,0.2,0.3,0.2,0.5,0.2c0,0,0,0,0,0l0.1,0v0.3h-0.1c-0.1,0-0.6,0-1.1,0.1C56.9,14.2,56.7,14.3,56.6,14.3L56.6,14.3z M55.3,9.3
					c-1.1,0-1.6,0.7-1.6,2.2c0,0.6,0.2,2,1.7,2h0.1c0.2,0,0.5,0,0.9-0.2V9.7C56.3,9.6,56,9.3,55.3,9.3z"/>
			</g>
		</g>
	</g>
	<g>
		<path class="st0" d="M17.7,16.6h0.9l0.8,2.2l0.3,0.9h0l0.3-0.9l0.8-2.2h0.9v4.5h-0.8v-2.1c0-0.4,0.1-1,0.1-1.4h0l-0.4,1l-0.8,2
			h-0.4l-0.8-2l-0.4-1h0c0,0.4,0.1,1,0.1,1.4v2.1h-0.7L17.7,16.6L17.7,16.6z"/>
		<path class="st0" d="M24.5,16.6h2.7v0.7h-1.9v1.2H27v0.7h-1.6v1.3h2v0.7h-2.8V16.6L24.5,16.6z"/>
		<path class="st0" d="M30,16.6h1.2c1.4,0,2.2,0.7,2.2,2.2c0,1.5-0.8,2.3-2.2,2.3H30V16.6L30,16.6L30,16.6z M31.1,20.5
			c0.9,0,1.4-0.5,1.4-1.6c0-1.1-0.5-1.6-1.4-1.6h-0.3v3.2H31.1L31.1,20.5z"/>
		<path class="st0" d="M36,16.6h0.8v4.5H36V16.6z"/>
		<path class="st0" d="M41.5,16.5c0.6,0,1,0.3,1.3,0.6l-0.4,0.5c-0.2-0.2-0.5-0.4-0.8-0.4c-0.7,0-1.3,0.6-1.3,1.6
			c0,1,0.5,1.6,1.2,1.6c0.4,0,0.7-0.2,1-0.4l0.4,0.5c-0.4,0.4-0.8,0.7-1.4,0.7c-1.1,0-2.1-0.8-2.1-2.3
			C39.4,17.4,40.3,16.5,41.5,16.5z"/>
		<path class="st0" d="M45.3,16.6h0.8v4.5h-0.8V16.6z"/>
		<path class="st0" d="M49,16.6h0.8l1.4,2.5l0.5,1h0c0-0.5-0.1-1-0.1-1.5v-2h0.8v4.5h-0.8l-1.4-2.5l-0.5-1h0c0,0.5,0.1,1,0.1,1.5v2
			H49V16.6L49,16.6L49,16.6z"/>
		<path class="st0" d="M55.2,16.6h2.7v0.7H56v1.2h1.6v0.7H56v1.3h2v0.7h-2.8V16.6L55.2,16.6L55.2,16.6z"/>
	</g>
</g>
<text transform="matrix(1 0 0 1 64.123 21.2354)" class="st0 st1 st2">CS342 CardinalKit</text>
<text transform="matrix(1 0 0 1 64.123 14.3027)" class="st0 st1 st3">Biodesign</text>
<rect x="61.2" y="5.7" class="st0" width="0.3" height="15.6"/>
</svg>
